<svg width="36" height="36" viewBox="0 0 36 36" fill="none" xmlns="http://www.w3.org/2000/svg">
<circle cx="18" cy="18" r="18" fill="#E4AA28"/>
<path d="M22.0325 9H13.9675C12.6504 9.00135 11.3877 9.52514 10.4564 10.4564C9.52514 11.3877 9.00135 12.6504 9 13.9675V22.0325C9.00135 23.3496 9.52514 24.6123 10.4564 25.5436C11.3877 26.4749 12.6504 26.9987 13.9675 27H22.0325C23.3496 26.9987 24.6123 26.4749 25.5436 25.5436C26.4749 24.6123 26.9987 23.3496 27 22.0325V13.9675C26.9987 12.6504 26.4749 11.3877 25.5436 10.4564C24.6123 9.52514 23.3496 9.00135 22.0325 9ZM25.4033 22.0325C25.4024 22.9262 25.047 23.7831 24.415 24.415C23.7831 25.047 22.9262 25.4024 22.0325 25.4033H13.9675C13.0739 25.4022 12.2173 25.0466 11.5855 24.4147C10.9538 23.7828 10.5985 22.9261 10.5976 22.0325V13.9675C10.5987 13.0741 10.9541 12.2176 11.5858 11.5858C12.2176 10.9541 13.0741 10.5987 13.9675 10.5976H22.0325C22.9261 10.5985 23.7828 10.9538 24.4147 11.5855C25.0466 12.2173 25.4022 13.0739 25.4033 13.9675V22.0325Z" fill="#191919"/>
<path d="M17.9996 13.3624C16.77 13.3637 15.5912 13.8527 14.7216 14.7221C13.8521 15.5915 13.3629 16.7702 13.3613 17.9998C13.3627 19.2296 13.8518 20.4085 14.7213 21.2781C15.5909 22.1477 16.7699 22.6368 17.9996 22.6381C19.2294 22.6368 20.4083 22.1477 21.2779 21.2781C22.1475 20.4085 22.6366 19.2296 22.6379 17.9998C22.6363 16.7702 22.1471 15.5915 21.2776 14.7221C20.4081 13.8527 19.2292 13.3637 17.9996 13.3624ZM17.9996 21.0405C17.1934 21.0396 16.4205 20.719 15.8505 20.1489C15.2804 19.5789 14.9598 18.806 14.9589 17.9998C14.9598 17.1936 15.2804 16.4207 15.8505 15.8507C16.4205 15.2806 17.1934 14.96 17.9996 14.9591C18.8059 14.9598 19.5791 15.2803 20.1493 15.8504C20.7195 16.4205 21.0403 17.1935 21.0412 17.9998C21.0403 18.8061 20.7195 19.5792 20.1493 20.1492C19.5791 20.7193 18.8059 21.0399 17.9996 21.0405ZM22.8322 12.0083C22.5221 12.0096 22.2251 12.1334 22.0058 12.3527C21.7865 12.572 21.6627 12.869 21.6614 13.1791C21.6614 13.4871 21.787 13.7891 22.005 14.0072C22.2222 14.2244 22.5242 14.3499 22.8322 14.3499C23.141 14.3499 23.4431 14.2244 23.6603 14.0072C23.8793 13.7871 24.0028 13.4896 24.0039 13.1791C24.0039 12.8703 23.8791 12.5683 23.6603 12.3511C23.4403 12.132 23.1426 12.0088 22.8322 12.0083Z" fill="#191919"/>
</svg>
